<svg width="67" height="41" viewBox="0 0 67 41" fill="none" xmlns="http://www.w3.org/2000/svg">
<path id="freepik  shadow  inject 10" d="M29.1672 40.5645C28.5427 40.5577 27.9395 40.337 27.458 39.9394C26.9766 39.5417 26.646 38.9911 26.5215 38.3793L25.906 35.1403C24.5168 34.8866 23.1443 34.5489 21.796 34.1289H21.6899L15.9881 36.7739C15.5196 36.9764 15.0111 37.0696 14.5012 37.0463C13.9913 37.023 13.4934 36.8839 13.0453 36.6395L7.38597 33.3581C7.04446 33.1747 6.75616 32.9062 6.54902 32.5786C6.34188 32.251 6.22293 31.8755 6.20371 31.4884C6.1845 31.1013 6.26566 30.7158 6.43934 30.3694C6.61301 30.0229 6.8733 29.7271 7.19496 29.5108L10.633 27.0356C10.3209 26.6201 10.035 26.1855 9.77702 25.7343L2.53311 25.2817C1.87558 25.2405 1.25833 24.9508 0.806461 24.4715C0.354594 23.9922 0.101905 23.3591 0.0996094 22.7004V18.4572C0.0999943 17.7984 0.350899 17.1645 0.801463 16.6839C1.25203 16.2032 1.86854 15.9118 2.52604 15.8688L9.76995 15.4091C10.028 14.9602 10.3138 14.528 10.6259 14.1149L7.17374 11.6609C6.85208 11.4446 6.59179 11.1488 6.41811 10.8023C6.24444 10.4559 6.16328 10.0704 6.18249 9.68333C6.20171 9.29626 6.32066 8.92071 6.52779 8.59312C6.73493 8.26554 7.02323 7.99703 7.36474 7.81363L13.024 4.53219C13.5167 4.25708 14.0727 4.11566 14.637 4.12199C15.0951 4.1154 15.5491 4.20957 15.9669 4.39781L21.6757 7.04277H21.7464C23.1111 6.61964 24.5002 6.27955 25.906 6.02439L26.5215 2.78538C26.6448 2.17298 26.975 1.6216 27.4567 1.22372C27.9385 0.825838 28.5424 0.605659 29.1672 0.600098H37.5218C38.1462 0.606967 38.7495 0.827612 39.2309 1.22527C39.7124 1.62294 40.0429 2.17358 40.1675 2.78538L40.7829 6.02439C42.169 6.27905 43.539 6.61438 44.8859 7.02864H44.992L50.7009 4.38366C51.1164 4.1962 51.5679 4.10207 52.0237 4.10786C52.5903 4.10061 53.1489 4.24204 53.6437 4.51803L59.303 7.7995C59.6433 7.98365 59.9305 8.25218 60.1371 8.57931C60.3436 8.90644 60.4625 9.28118 60.4824 9.66751C60.5023 10.0538 60.4225 10.4388 60.2507 10.7854C60.0788 11.132 59.8207 11.4286 59.5011 11.6467L56.056 14.122C56.3687 14.5361 56.6569 14.9683 56.919 15.4161L64.1629 15.8758C64.8204 15.9189 65.437 16.2103 65.8875 16.6909C66.3381 17.1716 66.589 17.8055 66.5894 18.4642V22.7075C66.5873 23.3657 66.3358 23.9987 65.8856 24.479C65.4354 24.9593 64.8198 25.2512 64.1629 25.2959L56.919 25.7485C56.6586 26.1997 56.3704 26.6343 56.056 27.0498L59.5011 29.525C59.8207 29.7431 60.0788 30.0397 60.2507 30.3863C60.4225 30.7329 60.5023 31.1179 60.4824 31.5042C60.4625 31.8905 60.3436 32.2653 60.1371 32.5924C59.9305 32.9195 59.6433 33.1881 59.303 33.3722L53.6437 36.6537C53.1476 36.9263 52.5899 37.0676 52.0237 37.0639C51.5683 37.0661 51.1175 36.9721 50.7009 36.788L44.992 34.1431H44.9213C43.5592 34.5686 42.1724 34.911 40.7688 35.1685L40.1533 38.4005C40.0302 39.0136 39.7003 39.5658 39.2187 39.9649C38.7371 40.364 38.1331 40.5856 37.5076 40.5928L29.1672 40.5645ZM33.348 16.7457C30.3267 16.6745 27.3378 17.3808 24.6681 18.7966C22.7227 19.9211 21.605 21.3567 21.605 22.7499C21.605 24.1431 22.7227 25.5788 24.6681 26.7032C27.3639 28.0518 30.337 28.754 33.3516 28.754C36.3661 28.754 39.3392 28.0518 42.0351 26.7032C43.9804 25.5788 45.0911 24.1431 45.0911 22.7499C45.0911 21.3567 43.9804 19.9211 42.0351 18.7966C39.3624 17.3817 36.3715 16.6755 33.348 16.7457Z" fill="#E0E0E0"/>
</svg>
