<svg width="137" height="79" viewBox="0 0 137 79" fill="none" xmlns="http://www.w3.org/2000/svg">
<path id="freepik  shadow  inject 10" d="M135.433 2.5222L133.063 1.1573C132.162 0.700632 131.166 0.462646 130.155 0.462646C129.145 0.462646 128.149 0.700632 127.248 1.1573L2.14194 73.3988C0.543183 74.3181 0.543183 75.8316 2.14194 76.7509L4.5047 78.1159C5.40706 78.5726 6.40428 78.8106 7.4157 78.8106C8.42712 78.8106 9.42435 78.5726 10.3267 78.1159L48.3289 56.1924L63.7293 65.0749C68.087 67.5926 75.2248 67.5926 79.5824 65.0749L105.799 49.9406C109.52 47.819 109.52 44.2829 105.799 42.1613L89.2528 32.5362L135.44 5.88145C137.031 4.95501 137.031 3.44865 135.433 2.5222Z" fill="#E0E0E0"/>
</svg>
