<svg width="21" height="26" viewBox="0 0 21 26" fill="none" xmlns="http://www.w3.org/2000/svg">
<g id="freepik  speech bubbles  inject 10">
<g id="freepik  speech bubble  inject 10">
<g id="freepik  speech bubble  inject 10_2">
<path id="Vector" d="M17.2676 0.812705L4.88079 7.96966C4.75277 8.05522 4.64649 8.16944 4.57035 8.30325C4.49421 8.43707 4.45033 8.58679 4.4422 8.74052V23.8748C4.44991 24.0275 4.49447 24.1761 4.57208 24.3079C4.64968 24.4396 4.75803 24.5507 4.88787 24.6315L6.64227 25.6358C6.78097 25.7038 6.93341 25.7392 7.08792 25.7392C7.24243 25.7392 7.39489 25.7038 7.53359 25.6358L19.9204 18.4717C20.0483 18.3877 20.1546 18.2748 20.2308 18.1421C20.307 18.0094 20.3509 17.8607 20.359 17.7079V2.57365C20.3507 2.42012 20.3059 2.27078 20.2284 2.13797C20.1509 2.00516 20.0429 1.89269 19.9133 1.80987L18.1943 0.805631C18.051 0.731169 17.8916 0.692888 17.7301 0.694121C17.5685 0.695353 17.4098 0.736064 17.2676 0.812705Z" fill="#333333"/>
<path id="Vector_2" d="M7.53359 25.6287C7.39445 25.6953 7.24216 25.7298 7.08792 25.7298C6.93368 25.7298 6.78141 25.6953 6.64227 25.6287L4.88787 24.6245C4.75803 24.5437 4.64968 24.4326 4.57208 24.3009C4.49447 24.1691 4.44991 24.0205 4.4422 23.8678V8.7335C4.44896 8.57285 4.49775 8.41679 4.58369 8.28088L7.22233 9.79431C7.13744 9.93575 7.08792 10.0913 7.08792 9.85089V24.9852C7.08792 25.6287 7.27185 25.7772 7.53359 25.6287Z" fill="#333333"/>
<path id="Vector_3" opacity="0.4" d="M20.3518 2.52422C20.3165 2.29791 20.1396 2.22012 19.9203 2.34742L7.53352 9.51145C7.4044 9.59243 7.29744 9.70422 7.22226 9.83677L4.57654 8.32334C4.65397 8.19439 4.76058 8.08539 4.8878 8.0051L17.2746 0.841064C17.4116 0.771494 17.5631 0.735229 17.7167 0.735229C17.8704 0.735229 18.0219 0.771494 18.1589 0.841064L19.9132 1.83823C20.0324 1.91318 20.1335 2.01355 20.2094 2.13215C20.2852 2.25074 20.3338 2.38463 20.3518 2.52422Z" fill="white"/>
<path id="Vector_4" d="M3.2325 19.964C2.94953 19.7943 0.834365 18.6062 0.770698 18.5496C0.718391 18.5184 0.673704 18.4759 0.639872 18.4252C0.60604 18.3746 0.583913 18.317 0.575107 18.2567C0.5663 18.1965 0.571041 18.135 0.588966 18.0768C0.606891 18.0186 0.637546 17.9651 0.678731 17.9202L4.44217 13.6062L7.08788 15.1267L3.15467 19.3275C3.11274 19.3721 3.08113 19.4254 3.06208 19.4835C3.04303 19.5416 3.03702 19.6033 3.04444 19.664C3.05187 19.7247 3.07256 19.7831 3.10506 19.8349C3.13756 19.8868 3.18107 19.9309 3.2325 19.964Z" fill="#37474F"/>
<path id="Vector_5" opacity="0.4" d="M3.2325 19.964C2.94953 19.7943 0.834365 18.6062 0.770698 18.5496C0.718391 18.5184 0.673704 18.4759 0.639872 18.4252C0.60604 18.3746 0.583913 18.317 0.575107 18.2567C0.5663 18.1965 0.571041 18.135 0.588966 18.0768C0.606891 18.0186 0.637546 17.9651 0.678731 17.9202L4.44217 13.6062L7.08788 15.1267L3.15467 19.3275C3.11274 19.3721 3.08113 19.4254 3.06208 19.4835C3.04303 19.5416 3.03702 19.6033 3.04444 19.664C3.05187 19.7247 3.07256 19.7831 3.10506 19.8349C3.13756 19.8868 3.18107 19.9309 3.2325 19.964Z" fill="white"/>
<path id="Vector_6" d="M19.9204 2.31204L7.53355 9.47607C7.40397 9.5589 7.29598 9.67136 7.21849 9.80417C7.14099 9.93698 7.09621 10.0863 7.08788 10.2399V15.1408L3.15466 19.3416C3.08926 19.3931 3.04173 19.4638 3.01878 19.5437C2.99584 19.6237 2.99865 19.7088 3.02683 19.7871C3.05502 19.8653 3.10714 19.9327 3.17579 19.9797C3.24445 20.0267 3.32616 20.0509 3.40934 20.0489L7.08788 19.7801V25.4024C7.08788 25.6853 7.28595 25.7985 7.53355 25.657L19.9204 18.493C20.0482 18.409 20.1546 18.296 20.2307 18.1634C20.3069 18.0307 20.3508 17.882 20.359 17.7292V2.59492C20.359 2.28375 20.1609 2.1706 19.9204 2.31204Z" fill="#37474F"/>
</g>
<path id="freepik  X  inject 10" d="M17.4869 15.7419L14.9473 13.8395L17.5647 8.83241C17.682 8.60921 17.7058 8.34859 17.6308 8.10787C17.5558 7.86715 17.3883 7.66606 17.165 7.54883C16.9418 7.43161 16.6811 7.40785 16.4403 7.48278C16.1995 7.55772 15.9983 7.7252 15.8811 7.9484L13.4051 12.6796L11.1414 10.9682C11.042 10.893 10.9287 10.838 10.8081 10.8066C10.6875 10.7751 10.5618 10.7677 10.4383 10.7848C10.3148 10.8018 10.1959 10.8431 10.0883 10.9061C9.98078 10.9691 9.8867 11.0527 9.81145 11.1521C9.7362 11.2514 9.68127 11.3647 9.64979 11.4852C9.61831 11.6058 9.61089 11.7315 9.62797 11.8549C9.64505 11.9784 9.6863 12.0973 9.74934 12.2048C9.81238 12.3123 9.89598 12.4064 9.99538 12.4816L12.5138 14.384L10.0025 19.1789C9.88548 19.4031 9.86223 19.6645 9.93783 19.9058C10.0134 20.1471 10.1817 20.3486 10.4057 20.466C10.5416 20.5351 10.6918 20.5715 10.8443 20.5721C11.0178 20.5724 11.188 20.525 11.3364 20.4352C11.4849 20.3454 11.6058 20.2167 11.6861 20.0629L14.0489 15.5509L16.3197 17.2623C16.521 17.4128 16.7735 17.4779 17.0224 17.4435C17.2714 17.4091 17.4967 17.2779 17.6496 17.0785C17.8047 16.8794 17.8746 16.6271 17.8441 16.3766C17.8136 16.1262 17.6852 15.8979 17.4869 15.7419Z" fill="#F5F7FA"/>
</g>
</g>
</svg>
